<?xml version="1.0" standalone="no"?>
<!DOCTYPE svg PUBLIC "-//W3C//DTD SVG 20010904//EN"
 "http://www.w3.org/TR/2001/REC-SVG-20010904/DTD/svg10.dtd">
<svg version="1.0" xmlns="http://www.w3.org/2000/svg"
 width="39.000000pt" height="34.000000pt" viewBox="0 0 229.000000 220.000000"
 preserveAspectRatio="xMidYMid meet">

<g transform="translate(0.000000,220.000000) scale(0.100000,-0.100000)"
fill="#55acee" stroke="none">
<path d="M1311 2116 c-128 -186 -93 -435 86 -607 131 -126 255 -174 427 -167
158 7 271 64 346 173 l32 46 -49 -34 c-70 -51 -128 -67 -236 -67 -105 0 -182
17 -273 61 -127 60 -236 176 -291 311 -33 80 -43 221 -20 286 8 23 13 42 11
42 -2 0 -17 -20 -33 -44z"/>
<path d="M791 1944 c-35 -52 -75 -127 -90 -167 -24 -66 -26 -84 -25 -217 0
-130 3 -154 27 -225 89 -268 313 -488 595 -586 128 -44 346 -46 507 -4 185 49
348 178 441 350 l37 70 -39 -41 c-282 -291 -744 -294 -1107 -5 -129 102 -240
260 -291 413 -49 145 -51 332 -5 452 10 28 17 51 16 53 -2 1 -32 -40 -66 -93z"/>
<path d="M196 1743 c-140 -181 -190 -323 -189 -543 0 -190 27 -299 123 -495
68 -137 118 -208 227 -319 252 -254 557 -386 893 -386 167 0 377 48 515 118
173 87 327 240 438 433 l26 45 -65 -63 c-134 -131 -323 -220 -528 -248 -86
-12 -290 -7 -383 9 -476 83 -898 464 -1014 914 -52 203 -42 433 26 595 8 20
13 37 11 37 -3 0 -39 -44 -80 -97z"/>
</g>
</svg>
