<?xml version="1.0" standalone="no"?>
<!DOCTYPE svg PUBLIC "-//W3C//DTD SVG 20010904//EN"
 "http://www.w3.org/TR/2001/REC-SVG-20010904/DTD/svg10.dtd">
<svg version="1.0" xmlns="http://www.w3.org/2000/svg"
 width="263.000000pt" height="192.000000pt" viewBox="0 0 263.000000 192.000000"
 preserveAspectRatio="xMidYMid meet">

<g transform="translate(0.000000,192.000000) scale(0.100000,-0.100000)"
fill="#000000" stroke="none">
<path d="M2315 1769 c-98 -8 -508 -37 -993 -70 -95 -7 -180 -17 -188 -24 -19
-14 -168 -942 -159 -992 5 -30 8 -31 68 -38 34 -3 87 -10 117 -15 30 -5 73
-12 95 -15 75 -10 140 -23 120 -24 -11 0 -101 10 -199 24 -210 29 -228 30
-321 10 -196 -42 -286 -63 -290 -67 -3 -3 39 -12 93 -21 308 -53 1102 -187
1132 -191 19 -3 59 -9 87 -15 48 -9 58 -8 115 17 35 15 109 46 165 67 57 22
103 43 103 46 0 3 -62 14 -137 24 -189 25 -294 43 -259 44 16 1 57 -3 90 -9
81 -13 358 -52 374 -53 6 0 12 -4 12 -8 0 -13 33 2 52 24 22 24 24 35 53 272
13 110 40 331 60 490 50 407 59 499 52 518 -7 19 -54 20 -242 6z m205 -81 c0
-13 -14 -126 -30 -253 -25 -195 -73 -583 -98 -800 -7 -56 -9 -60 -32 -58 -51
4 -1355 157 -1359 159 -1 2 24 177 57 391 34 213 64 412 68 441 4 29 11 55 17
59 11 7 1180 80 1310 82 63 1 67 0 67 -21z m-910 -1068 c11 -8 7 -9 -15 -4
-37 8 -45 14 -19 14 10 0 26 -5 34 -10z m-142 -37 c-10 -2 -28 -2 -40 0 -13 2
-5 4 17 4 22 1 32 -1 23 -4z m65 -10 c-7 -2 -21 -2 -30 0 -10 3 -4 5 12 5 17
0 24 -2 18 -5z m112 -12 c53 -11 5 -12 -55 -2 -34 6 -37 9 -15 9 17 1 48 -3
70 -7z m150 -20 l40 -9 -40 0 c-22 0 -53 4 -70 8 l-30 8 30 0 c17 1 48 -3 70
-7z"/>
<path d="M1790 1413 c0 -40 -4 -40 -42 -8 -44 37 -55 30 -14 -9 35 -33 46 -56
26 -56 -5 0 -10 4 -10 9 0 4 -22 20 -50 34 -48 25 -69 19 -32 -9 16 -13 16
-14 -1 -8 -13 5 -16 2 -11 -10 4 -10 13 -15 20 -12 16 6 19 -5 6 -19 -14 -16
-32 -89 -32 -129 0 -26 8 -44 29 -66 l28 -30 27 21 c31 25 32 33 5 60 -11 11
-18 26 -16 32 6 18 33 20 50 3 23 -23 104 -43 118 -29 8 8 6 16 -8 30 -10 10
-29 36 -42 56 l-23 38 21 20 c23 22 21 30 -24 84 l-25 30 0 -32z"/>
<path d="M1610 1168 c0 -20 27 -54 36 -45 4 4 2 7 -4 7 -7 0 -12 9 -12 19 0
11 -4 23 -10 26 -5 3 -10 0 -10 -7z"/>
<path d="M1733 1077 c-18 -12 -33 -29 -33 -37 0 -8 -9 -28 -20 -45 -11 -16
-20 -41 -19 -55 0 -21 2 -19 13 11 12 33 76 123 101 141 25 19 -13 5 -42 -15z"/>
</g>
</svg>
